# xmcd
#
# Track frame offsets:
#	150
#	21300
#	36825
#	52425
#	68553
#	84378
#	107028
#	124730
#	142505
#	162155
#	175958
#	189908
#
# Disc length: 2718 seconds
#
# Revision: 5
# Processed by: cddbd v1.5.2PL0 Copyright (c) Steve Scherf et al.
# Submitted via: EasyCDDAExtractor 15.3.0.1
#
DISCID=9b0a9c0c
DTITLE=Alejandra Guzman - 12 Grandes Exitos
DYEAR=1994
DGENRE=Latin
TTITLE0=Hacer El Amor Con Otro
TTITLE1=Eternamente Bella
TTITLE2=Reina De Corazones
TTITLE3=Cuidado Con El Corazon
TTITLE4=Satisfaccion
TTITLE5=Rosas Rojas
TTITLE6=Un Grito En La Noche
TTITLE7=Güera
TTITLE8=Llama Por Favor
TTITLE9=Luz De Luna
TTITLE10=Guante De Seda
TTITLE11=Verano Peligroso
EXTD=
EXTT0=
EXTT1=
EXTT2=
EXTT3=
EXTT4=
EXTT5=
EXTT6=
EXTT7=
EXTT8=
EXTT9=
EXTT10=
EXTT11=
PLAYORDER=
